<?xml version="1.0" encoding="UTF-8" standalone="no"?>
<!DOCTYPE svg PUBLIC "-//W3C//DTD SVG 1.1//EN"
 "http://www.w3.org/Graphics/SVG/1.1/DTD/svg11.dtd">
<!-- Generated by graphviz version 10.0.1 (20240210.2158)
 -->
<!-- Title: egraph Pages: 1 -->
<svg width="623pt" height="220pt"
 viewBox="0.00 0.00 623.00 220.00" xmlns="http://www.w3.org/2000/svg" xmlns:xlink="http://www.w3.org/1999/xlink">
<g id="graph0" class="graph" transform="scale(1 1) rotate(0) translate(4 216)">
<title>egraph</title>
<polygon fill="white" stroke="none" points="-4,4 -4,-216 619,-216 619,4 -4,4"/>
<g id="clust1" class="cluster">
<title>cluster_0</title>
<polygon fill="none" stroke="black" stroke-dasharray="1,5" points="465,-8 465,-60 607,-60 607,-8 465,-8"/>
</g>
<g id="clust2" class="cluster">
<title>cluster_4</title>
<polygon fill="none" stroke="black" stroke-dasharray="1,5" points="226,-80 226,-132 368,-132 368,-80 226,-80"/>
</g>
<g id="clust3" class="cluster">
<title>cluster_5</title>
<polygon fill="none" stroke="black" stroke-dasharray="1,5" points="156,-152 156,-204 460,-204 460,-152 156,-152"/>
</g>
<g id="clust4" class="cluster">
<title>cluster_2</title>
<polygon fill="none" stroke="black" stroke-dasharray="1,5" points="8,-80 8,-132 186,-132 186,-80 8,-80"/>
</g>
<g id="clust5" class="cluster">
<title>cluster_3</title>
<polygon fill="none" stroke="black" stroke-dasharray="1,5" points="171,-8 171,-60 457,-60 457,-8 171,-8"/>
</g>
<!-- 0.0 -->
<g id="node1" class="node">
<title>0.0</title>
<ellipse fill="none" stroke="black" cx="500" cy="-34" rx="27" ry="18"/>
<text text-anchor="middle" x="500" y="-28.95" font-family="Times,serif" font-size="14.00">A</text>
</g>
<!-- 0.1 -->
<g id="node2" class="node">
<title>0.1</title>
<ellipse fill="none" stroke="black" cx="572" cy="-34" rx="27" ry="18"/>
<text text-anchor="middle" x="572" y="-28.95" font-family="Times,serif" font-size="14.00">0</text>
</g>
<!-- 4.0 -->
<g id="node3" class="node">
<title>4.0</title>
<ellipse fill="none" stroke="black" cx="261" cy="-106" rx="27" ry="18"/>
<text text-anchor="middle" x="261" y="-100.95" font-family="Times,serif" font-size="14.00">@</text>
</g>
<!-- 4.0&#45;&gt;0.0 -->
<g id="edge1" class="edge">
<title>4.0:sw&#45;&gt;0.0</title>
<path fill="none" stroke="black" d="M246,-90C229.67,-73.67 274.19,-83.62 297,-80 365.84,-69.07 389.51,-83.29 454.25,-62.12"/>
<polygon fill="black" stroke="black" points="455.26,-65.47 463.57,-58.9 452.98,-58.86 455.26,-65.47"/>
</g>
<!-- 3.0 -->
<g id="node11" class="node">
<title>3.0</title>
<ellipse fill="none" stroke="black" cx="206" cy="-34" rx="27" ry="18"/>
<text text-anchor="middle" x="206" y="-28.95" font-family="Times,serif" font-size="14.00">I</text>
</g>
<!-- 4.0&#45;&gt;3.0 -->
<g id="edge2" class="edge">
<title>4.0:se&#45;&gt;3.0</title>
<path fill="none" stroke="black" d="M276,-90C277.51,-88.49 264.75,-78.09 249.72,-66.74"/>
<polygon fill="black" stroke="black" points="252.02,-64.09 241.92,-60.9 247.83,-69.69 252.02,-64.09"/>
</g>
<!-- 4.1 -->
<g id="node4" class="node">
<title>4.1</title>
<ellipse fill="none" stroke="black" cx="333" cy="-106" rx="27" ry="18"/>
<text text-anchor="middle" x="333" y="-100.95" font-family="Times,serif" font-size="14.00">4</text>
</g>
<!-- 5.0 -->
<g id="node5" class="node">
<title>5.0</title>
<ellipse fill="none" stroke="black" cx="191" cy="-178" rx="27" ry="18"/>
<text text-anchor="middle" x="191" y="-172.95" font-family="Times,serif" font-size="14.00">@</text>
</g>
<!-- 2.0 -->
<g id="node9" class="node">
<title>2.0</title>
<ellipse fill="none" stroke="black" cx="61" cy="-106" rx="45.21" ry="18"/>
<text text-anchor="middle" x="61" y="-100.95" font-family="Times,serif" font-size="14.00">IO.return</text>
</g>
<!-- 5.0&#45;&gt;2.0 -->
<g id="edge3" class="edge">
<title>5.0:sw&#45;&gt;2.0</title>
<path fill="none" stroke="black" d="M176,-162C174.85,-160.85 150.58,-149.19 124.62,-136.9"/>
<polygon fill="black" stroke="black" points="126.16,-133.76 115.62,-132.64 123.16,-140.08 126.16,-133.76"/>
</g>
<!-- 5.0&#45;&gt;3.0 -->
<g id="edge4" class="edge">
<title>5.0:se&#45;&gt;3.0</title>
<path fill="none" stroke="black" d="M206,-162C219.33,-148.67 214.85,-96.48 210.41,-63.3"/>
<polygon fill="black" stroke="black" points="215.32,-70.7 210.08,-61.49 208.43,-71.96 215.32,-70.7"/>
</g>
<!-- 5.1 -->
<g id="node6" class="node">
<title>5.1</title>
<ellipse fill="none" stroke="black" cx="263" cy="-178" rx="27" ry="18"/>
<text text-anchor="middle" x="263" y="-172.95" font-family="Times,serif" font-size="14.00">@</text>
</g>
<!-- 5.1&#45;&gt;4.0 -->
<g id="edge5" class="edge">
<title>5.1:sw&#45;&gt;4.0</title>
<path fill="none" stroke="black" d="M248,-162C240.43,-154.43 241.67,-143.32 245.59,-133.07"/>
<polygon fill="black" stroke="black" points="242.32,-143.32 245.49,-133.21 236.71,-139.14 242.32,-143.32"/>
</g>
<!-- 5.1&#45;&gt;5.1 -->
<g id="edge6" class="edge">
<title>5.1:se&#45;&gt;5.1:n</title>
<path fill="none" stroke="black" d="M278,-163C293,-145 308,-145 308,-179.5 308,-208.34 287.04,-213.07 271.4,-203.33"/>
<polygon fill="black" stroke="black" points="273.97,-200.94 264.14,-197 269.37,-206.21 273.97,-200.94"/>
</g>
<!-- 5.2 -->
<g id="node7" class="node">
<title>5.2</title>
<ellipse fill="none" stroke="black" cx="353" cy="-178" rx="27" ry="18"/>
<text text-anchor="middle" x="353" y="-172.95" font-family="Times,serif" font-size="14.00">5</text>
</g>
<!-- 5.3 -->
<g id="node8" class="node">
<title>5.3</title>
<ellipse fill="none" stroke="black" cx="425" cy="-178" rx="27" ry="18"/>
<text text-anchor="middle" x="425" y="-172.95" font-family="Times,serif" font-size="14.00">6</text>
</g>
<!-- 2.1 -->
<g id="node10" class="node">
<title>2.1</title>
<ellipse fill="none" stroke="black" cx="151" cy="-106" rx="27" ry="18"/>
<text text-anchor="middle" x="151" y="-100.95" font-family="Times,serif" font-size="14.00">2</text>
</g>
<!-- 3.1 -->
<g id="node12" class="node">
<title>3.1</title>
<ellipse fill="none" stroke="black" cx="278" cy="-34" rx="27" ry="18"/>
<text text-anchor="middle" x="278" y="-28.95" font-family="Times,serif" font-size="14.00">0</text>
</g>
<!-- 3.2 -->
<g id="node13" class="node">
<title>3.2</title>
<ellipse fill="none" stroke="black" cx="350" cy="-34" rx="27" ry="18"/>
<text text-anchor="middle" x="350" y="-28.95" font-family="Times,serif" font-size="14.00">1</text>
</g>
<!-- 3.3 -->
<g id="node14" class="node">
<title>3.3</title>
<ellipse fill="none" stroke="black" cx="422" cy="-34" rx="27" ry="18"/>
<text text-anchor="middle" x="422" y="-28.95" font-family="Times,serif" font-size="14.00">3</text>
</g>
</g>
</svg>
